<svg width="114" height="114" viewBox="0 0 114 114" fill="none" xmlns="http://www.w3.org/2000/svg">
<circle cx="57" cy="57" r="57" fill="#272727"/>
<path d="M87.9998 37.0347H26.0264V76.276H87.9998V37.0347Z" fill="#E6E6E6"/>
<path d="M86.2275 41.9565H27.7983V73.9545H86.2275V41.9565Z" fill="white"/>
<path d="M87.9734 37H26V39.603H87.9734V37Z" fill="#FF8E3D"/>
<path d="M27.9563 38.8132C28.2258 38.8132 28.4443 38.5972 28.4443 38.3308C28.4443 38.0644 28.2258 37.8484 27.9563 37.8484C27.6868 37.8484 27.4683 38.0644 27.4683 38.3308C27.4683 38.5972 27.6868 38.8132 27.9563 38.8132Z" fill="white"/>
<path d="M29.8088 38.8132C30.0783 38.8132 30.2968 38.5972 30.2968 38.3308C30.2968 38.0644 30.0783 37.8484 29.8088 37.8484C29.5393 37.8484 29.3208 38.0644 29.3208 38.3308C29.3208 38.5972 29.5393 38.8132 29.8088 38.8132Z" fill="white"/>
<path d="M31.6608 38.8132C31.9303 38.8132 32.1488 38.5972 32.1488 38.3308C32.1488 38.0644 31.9303 37.8484 31.6608 37.8484C31.3913 37.8484 31.1729 38.0644 31.1729 38.3308C31.1729 38.5972 31.3913 38.8132 31.6608 38.8132Z" fill="white"/>
<path d="M69.6953 44.9535H50.6727C50.6321 44.9482 50.5948 44.9285 50.5678 44.8981C50.5408 44.8676 50.5259 44.8285 50.5259 44.788C50.5259 44.7475 50.5408 44.7084 50.5678 44.678C50.5948 44.6475 50.6321 44.6278 50.6727 44.6226H69.6953C69.7359 44.6278 69.7732 44.6475 69.8002 44.678C69.8272 44.7084 69.8421 44.7475 69.8421 44.788C69.8421 44.8285 69.8272 44.8676 69.8002 44.8981C69.7732 44.9285 69.7359 44.9482 69.6953 44.9535Z" fill="#CCCCCC"/>
<path d="M56.5144 46.774H44.4197C44.3791 46.7688 44.3418 46.749 44.3148 46.7186C44.2878 46.6881 44.2729 46.649 44.2729 46.6085C44.2729 46.568 44.2878 46.5289 44.3148 46.4984C44.3418 46.468 44.3791 46.4483 44.4197 46.443H56.5144C56.555 46.4483 56.5922 46.468 56.6192 46.4984C56.6462 46.5289 56.6611 46.568 56.6611 46.6085C56.6611 46.649 56.6462 46.6881 56.6192 46.7186C56.5922 46.749 56.555 46.7688 56.5144 46.774Z" fill="#CCCCCC"/>
<path d="M69.6946 46.8071H57.5999C57.5593 46.8018 57.522 46.7821 57.495 46.7517C57.468 46.7213 57.4531 46.6821 57.4531 46.6417C57.4531 46.6012 57.468 46.5621 57.495 46.5316C57.522 46.5012 57.5593 46.4815 57.5999 46.4762H69.6946C69.7352 46.4815 69.7725 46.5012 69.7995 46.5316C69.8265 46.5621 69.8414 46.6012 69.8414 46.6417C69.8414 46.6821 69.8265 46.7213 69.7995 46.7517C69.7725 46.7821 69.7352 46.8018 69.6946 46.8071H69.6946Z" fill="#CCCCCC"/>
<path d="M56.5437 48.5946H44.449C44.4084 48.5893 44.3711 48.5696 44.3441 48.5392C44.3171 48.5087 44.3022 48.4696 44.3022 48.4291C44.3022 48.3886 44.3171 48.3495 44.3441 48.319C44.3711 48.2885 44.4084 48.2688 44.449 48.2635H56.5437C56.5843 48.2688 56.6215 48.2885 56.6485 48.319C56.6755 48.3495 56.6904 48.3886 56.6904 48.4291C56.6904 48.4696 56.6755 48.5087 56.6485 48.5392C56.6215 48.5696 56.5843 48.5893 56.5437 48.5946Z" fill="#CCCCCC"/>
<path d="M56.5725 50.415H44.4778C44.4372 50.4097 44.3999 50.39 44.3729 50.3596C44.3459 50.3292 44.3311 50.2901 44.3311 50.2496C44.3311 50.2091 44.3459 50.17 44.3729 50.1395C44.3999 50.1091 44.4372 50.0894 44.4778 50.0841H56.5725C56.6131 50.0894 56.6503 50.1091 56.6773 50.1395C56.7043 50.17 56.7192 50.2091 56.7192 50.2496C56.7192 50.2901 56.7043 50.3292 56.6773 50.3596C56.6503 50.39 56.6131 50.4097 56.5725 50.415Z" fill="#CCCCCC"/>
<path d="M62.0625 48.5946H58.5984C58.5578 48.5893 58.5205 48.5696 58.4935 48.5392C58.4665 48.5087 58.4517 48.4696 58.4517 48.4291C58.4517 48.3886 58.4665 48.3495 58.4935 48.319C58.5205 48.2885 58.5578 48.2688 58.5984 48.2635H62.0625C62.1031 48.2688 62.1403 48.2885 62.1673 48.319C62.1943 48.3495 62.2092 48.3886 62.2092 48.4291C62.2092 48.4696 62.1943 48.5087 62.1673 48.5392C62.1403 48.5696 62.1031 48.5893 62.0625 48.5946Z" fill="#CCCCCC"/>
<path d="M62.0625 50.382H58.5984C58.5578 50.3767 58.5205 50.357 58.4935 50.3265C58.4665 50.2961 58.4517 50.257 58.4517 50.2166C58.4517 50.1761 58.4665 50.137 58.4935 50.1066C58.5205 50.0761 58.5578 50.0564 58.5984 50.0511H62.0625C62.1031 50.0564 62.1403 50.0761 62.1673 50.1066C62.1943 50.137 62.2092 50.1761 62.2092 50.2166C62.2092 50.257 62.1943 50.2961 62.1673 50.3265C62.1403 50.357 62.1031 50.3767 62.0625 50.382Z" fill="#CCCCCC"/>
<path d="M67.8745 50.382H64.4104C64.3698 50.3767 64.3326 50.357 64.3056 50.3265C64.2786 50.2961 64.2637 50.257 64.2637 50.2166C64.2637 50.1761 64.2786 50.137 64.3056 50.1066C64.3326 50.0761 64.3698 50.0564 64.4104 50.0511H67.8745C67.9151 50.0564 67.9523 50.0761 67.9793 50.1066C68.0064 50.137 68.0212 50.1761 68.0212 50.2166C68.0212 50.257 68.0064 50.2961 67.9793 50.3265C67.9523 50.357 67.9151 50.3767 67.8745 50.382Z" fill="#CCCCCC"/>
<path d="M47.7954 44.9535H44.3314C44.2907 44.9482 44.2535 44.9285 44.2265 44.8981C44.1995 44.8676 44.1846 44.8285 44.1846 44.788C44.1846 44.7475 44.1995 44.7084 44.2265 44.678C44.2535 44.6475 44.2907 44.6278 44.3314 44.6226H47.7954C47.836 44.6278 47.8732 44.6475 47.9002 44.678C47.9273 44.7084 47.9421 44.7475 47.9421 44.788C47.9421 44.8285 47.9273 44.8676 47.9002 44.8981C47.8732 44.9285 47.836 44.9482 47.7954 44.9535Z" fill="#CCCCCC"/>
<path d="M56.4704 65.827H44.3758C44.3352 65.8217 44.2979 65.802 44.2709 65.7716C44.2439 65.7411 44.229 65.702 44.229 65.6615C44.229 65.621 44.2439 65.5819 44.2709 65.5514C44.2979 65.521 44.3352 65.5013 44.3758 65.496H56.4704C56.511 65.5013 56.5483 65.521 56.5753 65.5514C56.6023 65.5819 56.6172 65.621 56.6172 65.6615C56.6172 65.702 56.6023 65.7411 56.5753 65.7716C56.5483 65.802 56.511 65.8217 56.4704 65.827H56.4704Z" fill="#CCCCCC"/>
<path d="M56.4109 69.4681H44.3162C44.2756 69.4628 44.2383 69.4431 44.2113 69.4127C44.1843 69.3822 44.1694 69.3431 44.1694 69.3026C44.1694 69.2621 44.1843 69.223 44.2113 69.1925C44.2383 69.1621 44.2756 69.1424 44.3162 69.1371H56.4109C56.4515 69.1424 56.4888 69.1621 56.5158 69.1925C56.5428 69.223 56.5577 69.2621 56.5577 69.3026C56.5577 69.3431 56.5428 69.3822 56.5158 69.4127C56.4888 69.4431 56.4515 69.4628 56.4109 69.4681H56.4109Z" fill="#CCCCCC"/>
<path d="M56.4407 71.2886H44.346C44.3054 71.2833 44.2681 71.2636 44.2411 71.2331C44.2141 71.2027 44.1992 71.1636 44.1992 71.123C44.1992 71.0825 44.2141 71.0434 44.2411 71.013C44.2681 70.9825 44.3054 70.9628 44.346 70.9575H56.4407C56.4813 70.9628 56.5186 70.9825 56.5456 71.013C56.5726 71.0434 56.5875 71.0825 56.5875 71.123C56.5875 71.1636 56.5726 71.2027 56.5456 71.2331C56.5186 71.2636 56.4813 71.2833 56.4407 71.2886H56.4407Z" fill="#CCCCCC"/>
<path d="M61.6074 69.5012H58.1434C58.1028 69.4959 58.0655 69.4762 58.0385 69.4458C58.0115 69.4153 57.9966 69.3762 57.9966 69.3357C57.9966 69.2952 58.0115 69.2561 58.0385 69.2256C58.0655 69.1952 58.1028 69.1755 58.1434 69.1702H61.6074C61.648 69.1755 61.6853 69.1952 61.7123 69.2256C61.7393 69.2561 61.7542 69.2952 61.7542 69.3357C61.7542 69.3762 61.7393 69.4153 61.7123 69.4458C61.6853 69.4762 61.648 69.4959 61.6074 69.5012Z" fill="#CCCCCC"/>
<path d="M61.6074 71.2886H58.1434C58.1028 71.2833 58.0655 71.2636 58.0385 71.2331C58.0115 71.2027 57.9966 71.1636 57.9966 71.123C57.9966 71.0825 58.0115 71.0434 58.0385 71.013C58.0655 70.9825 58.1028 70.9628 58.1434 70.9575H61.6074C61.648 70.9628 61.6853 70.9825 61.7123 71.013C61.7393 71.0434 61.7542 71.0825 61.7542 71.123C61.7542 71.1636 61.7393 71.2027 61.7123 71.2331C61.6853 71.2636 61.648 71.2833 61.6074 71.2886Z" fill="#CCCCCC"/>
<path d="M67.4199 69.5012H63.9559C63.9153 69.4959 63.878 69.4762 63.851 69.4458C63.824 69.4153 63.8091 69.3762 63.8091 69.3357C63.8091 69.2952 63.824 69.2561 63.851 69.2256C63.878 69.1952 63.9153 69.1755 63.9559 69.1702H67.4199C67.4605 69.1755 67.4978 69.1952 67.5248 69.2256C67.5518 69.2561 67.5667 69.2952 67.5667 69.3357C67.5667 69.3762 67.5518 69.4153 67.5248 69.4458C67.4978 69.4762 67.4605 69.4959 67.4199 69.5012Z" fill="#CCCCCC"/>
<path d="M69.7094 67.6476H50.6868C50.6462 67.6423 50.6089 67.6226 50.5819 67.5921C50.5549 67.5617 50.54 67.5226 50.54 67.4821C50.54 67.4416 50.5549 67.4024 50.5819 67.372C50.6089 67.3415 50.6462 67.3218 50.6868 67.3165H69.7094C69.75 67.3218 69.7873 67.3415 69.8143 67.372C69.8413 67.4024 69.8562 67.4416 69.8562 67.4821C69.8562 67.5226 69.8413 67.5617 69.8143 67.5921C69.7873 67.6226 69.75 67.6423 69.7094 67.6476Z" fill="#CCCCCC"/>
<path d="M47.81 67.6476H44.346C44.3054 67.6423 44.2681 67.6226 44.2411 67.5921C44.2141 67.5617 44.1992 67.5226 44.1992 67.4821C44.1992 67.4416 44.2141 67.4024 44.2411 67.372C44.2681 67.3415 44.3054 67.3218 44.346 67.3165H47.81C47.8506 67.3218 47.8879 67.3415 47.9149 67.372C47.9419 67.4024 47.9568 67.4416 47.9568 67.4821C47.9568 67.5226 47.9419 67.5617 47.9149 67.5921C47.8879 67.6226 47.8506 67.6423 47.81 67.6476Z" fill="#CCCCCC"/>
<path d="M53.5495 53.3557L48.8525 57.9416L53.5495 62.5273L54.6063 61.4825L51.0542 57.9705L54.6356 54.4296L53.5495 53.3557Z" fill="#E6E6E6"/>
<path d="M60.4768 53.3557L65.1737 57.9416L60.4768 62.5273L59.42 61.4825L62.972 57.9705L59.3906 54.4296L60.4768 53.3557Z" fill="#E6E6E6"/>
<path d="M53.5495 53.3557L48.8525 57.9416L53.5495 62.5273L54.6063 61.4825L51.0542 57.9705L54.6356 54.4296L53.5495 53.3557Z" fill="#FF8E3D"/>
<path d="M60.4768 53.3557L65.1737 57.9416L60.4768 62.5273L59.42 61.4825L62.972 57.9705L59.3906 54.4296L60.4768 53.3557Z" fill="#FF8E3D"/>
</svg>
