<svg width="114" height="114" viewBox="0 0 114 114" fill="none" xmlns="http://www.w3.org/2000/svg">
<circle cx="57" cy="57" r="57" fill="#272727"/>
<g clip-path="url(#clip0)">
<path d="M84.3263 88C88.7123 88 92.2679 87.7267 92.2679 87.3897C92.2679 87.0526 88.7123 86.7793 84.3263 86.7793C79.9403 86.7793 76.3848 87.0526 76.3848 87.3897C76.3848 87.7267 79.9403 88 84.3263 88Z" fill="#E6E6E6"/>
<path d="M45.6398 88C50.0258 88 53.5813 87.7267 53.5813 87.3897C53.5813 87.0526 50.0258 86.7793 45.6398 86.7793C41.2538 86.7793 37.6982 87.0526 37.6982 87.3897C37.6982 87.7267 41.2538 88 45.6398 88Z" fill="#E6E6E6"/>
<path d="M80.8661 79.9589H26.8636C26.638 79.9586 26.4217 79.8682 26.2622 79.7075C26.1027 79.5467 26.0129 79.3288 26.0127 79.1015V26.8574C26.0129 26.6301 26.1027 26.4121 26.2622 26.2514C26.4217 26.0907 26.638 26.0002 26.8636 26H80.8661C81.0917 26.0002 81.308 26.0907 81.4675 26.2514C81.627 26.4121 81.7168 26.6301 81.717 26.8574V79.1015C81.7168 79.3288 81.627 79.5467 81.4675 79.7075C81.308 79.8682 81.0917 79.9586 80.8661 79.9589ZM26.8636 26.343C26.7282 26.3431 26.5985 26.3974 26.5027 26.4938C26.407 26.5902 26.3532 26.721 26.353 26.8574V79.1015C26.3532 79.2379 26.407 79.3686 26.5027 79.4651C26.5985 79.5615 26.7282 79.6158 26.8636 79.6159H80.8661C81.0015 79.6158 81.1313 79.5615 81.227 79.4651C81.3227 79.3686 81.3765 79.2379 81.3767 79.1015V26.8574C81.3765 26.721 81.3227 26.5902 81.227 26.4938C81.1313 26.3974 81.0015 26.3431 80.8661 26.343H26.8636Z" fill="#E6E6E6"/>
<path d="M29.9834 30.5728C29.8932 30.5729 29.8067 30.609 29.7429 30.6733C29.6791 30.7376 29.6432 30.8248 29.6431 30.9157V45.0913C29.6432 45.1823 29.6791 45.2694 29.7429 45.3337C29.8067 45.398 29.8932 45.4342 29.9834 45.4343H44.0513C44.1415 45.4342 44.2281 45.398 44.2919 45.3337C44.3557 45.2694 44.3916 45.1823 44.3917 45.0913V30.9157C44.3916 30.8248 44.3557 30.7376 44.2919 30.6733C44.2281 30.609 44.1415 30.5729 44.0513 30.5728H29.9834Z" fill="#E6E6E6"/>
<path d="M52.111 40.8331C52.0031 40.8349 51.9002 40.8793 51.8246 40.9568C51.7489 41.0343 51.7065 41.1387 51.7065 41.2474C51.7065 41.3561 51.7489 41.4605 51.8246 41.538C51.9002 41.6155 52.0031 41.66 52.111 41.6618H71.4972C71.5513 41.6628 71.605 41.6531 71.6554 41.6331C71.7057 41.6132 71.7517 41.5835 71.7906 41.5456C71.8295 41.5077 71.8607 41.4625 71.8822 41.4125C71.9038 41.3625 71.9153 41.3087 71.9162 41.2542C71.9171 41.1997 71.9073 41.1456 71.8874 41.0949C71.8675 41.0442 71.8378 40.998 71.8002 40.9589C71.7625 40.9198 71.7175 40.8885 71.6679 40.8669C71.6182 40.8453 71.5648 40.8338 71.5107 40.8331C71.5062 40.833 71.5017 40.833 71.4972 40.8331H52.111Z" fill="#E6E6E6"/>
<path d="M52.111 37.0605C52.0031 37.0623 51.9002 37.1067 51.8246 37.1842C51.7489 37.2618 51.7065 37.3661 51.7065 37.4748C51.7065 37.5836 51.7489 37.6879 51.8246 37.7654C51.9002 37.8429 52.0031 37.8874 52.111 37.8892H57.6562C57.7103 37.8902 57.7641 37.8805 57.8144 37.8606C57.8648 37.8406 57.9107 37.8109 57.9496 37.773C57.9885 37.7352 58.0197 37.6899 58.0412 37.6399C58.0628 37.5899 58.0743 37.5362 58.0752 37.4817C58.0761 37.4272 58.0663 37.373 58.0464 37.3223C58.0265 37.2716 57.9969 37.2254 57.9592 37.1863C57.9215 37.1472 57.8766 37.1159 57.8269 37.0943C57.7772 37.0727 57.7238 37.0612 57.6697 37.0605C57.6652 37.0604 57.6607 37.0604 57.6562 37.0605H52.111Z" fill="#E6E6E6"/>
<path d="M52.111 44.7199C52.0031 44.7217 51.9002 44.7662 51.8246 44.8437C51.7489 44.9212 51.7065 45.0255 51.7065 45.1343C51.7065 45.243 51.7489 45.3473 51.8246 45.4248C51.9002 45.5023 52.0031 45.5468 52.111 45.5486H71.4972C71.6061 45.5501 71.7111 45.5081 71.7893 45.4317C71.8674 45.3553 71.9123 45.2508 71.9141 45.141C71.9159 45.0313 71.8744 44.9254 71.7988 44.8464C71.7232 44.7675 71.6196 44.722 71.5107 44.7199C71.5062 44.7198 71.5017 44.7198 71.4972 44.7199H52.111Z" fill="#E6E6E6"/>
<path d="M75.1723 59.6914H48.5297C48.0103 59.6914 47.5894 59.3893 47.5889 59.0169V53.1818C47.5894 52.8095 48.0103 52.5073 48.5297 52.5073H75.1723C75.6916 52.5073 76.1125 52.8095 76.1131 53.1818V59.0168C76.1126 59.3892 75.6916 59.691 75.1723 59.6914Z" fill="#E6E6E6"/>
<path d="M57.1332 73.8671H30.4907C29.9713 73.8671 29.5504 73.5649 29.5498 73.1926V67.3575C29.5504 66.9851 29.9713 66.683 30.4907 66.683H57.1332C57.6526 66.683 58.0735 66.9851 58.074 67.3575V73.1925C58.0736 73.5648 57.6526 73.8666 57.1332 73.8671Z" fill="#E6E6E6"/>
<path d="M49.0961 77.0814H22.4535C21.9342 77.0814 21.5133 76.7793 21.5127 76.4069V70.5718C21.5133 70.1995 21.9342 69.8973 22.4535 69.8973H49.0961C49.6155 69.8973 50.0364 70.1995 50.0369 70.5718V76.4068C50.0365 76.7792 49.6155 77.081 49.0961 77.0814ZM22.4535 70.1669C22.1419 70.1669 21.8894 70.3482 21.889 70.5716V76.4066C21.889 76.63 22.1419 76.8111 22.4535 76.8113H49.0961C49.4077 76.8113 49.6603 76.63 49.6606 76.4066V70.5718C49.6606 70.3484 49.4077 70.1674 49.0961 70.1671L22.4535 70.1669Z" fill="#3F3D56"/>
<path d="M58.6868 61.0961C59.8773 61.0961 60.8424 60.1236 60.8424 58.924C60.8424 57.7244 59.8773 56.752 58.6868 56.752C57.4963 56.752 56.5312 57.7244 56.5312 58.924C56.5312 60.1236 57.4963 61.0961 58.6868 61.0961Z" fill="#FF8E3D"/>
<path d="M26.3533 75.6147C27.5438 75.6147 28.5089 74.6422 28.5089 73.4426C28.5089 72.243 27.5438 71.2705 26.3533 71.2705C25.1628 71.2705 24.1978 72.243 24.1978 73.4426C24.1978 74.6422 25.1628 75.6147 26.3533 75.6147Z" fill="#FF8E3D"/>
<path d="M63.3429 57.3665C63.235 57.3683 63.1322 57.4128 63.0565 57.4903C62.9809 57.5678 62.9385 57.6722 62.9385 57.7809C62.9385 57.8896 62.9809 57.994 63.0565 58.0715C63.1322 58.149 63.235 58.1934 63.3429 58.1952H78.7584C78.8672 58.1967 78.9723 58.1547 79.0504 58.0783C79.1286 58.0019 79.1735 57.8974 79.1753 57.7877C79.1771 57.6779 79.1356 57.572 79.06 57.493C78.9843 57.4141 78.8807 57.3686 78.7719 57.3665C78.7674 57.3664 78.7629 57.3664 78.7584 57.3665H63.3429Z" fill="#3F3D56"/>
<path d="M63.3429 59.6529C63.235 59.6547 63.1322 59.6991 63.0565 59.7767C62.9809 59.8542 62.9385 59.9585 62.9385 60.0672C62.9385 60.176 62.9809 60.2803 63.0565 60.3578C63.1322 60.4353 63.235 60.4798 63.3429 60.4816H78.7584C78.8672 60.4831 78.9723 60.4411 79.0504 60.3647C79.1286 60.2882 79.1735 60.1837 79.1753 60.074C79.1771 59.9643 79.1356 59.8584 79.06 59.7794C78.9843 59.7005 78.8807 59.655 78.7719 59.6529C78.7674 59.6528 78.7629 59.6528 78.7584 59.6529H63.3429Z" fill="#3F3D56"/>
<path d="M31.0094 71.8851C30.9015 71.8869 30.7987 71.9313 30.723 72.0088C30.6474 72.0863 30.605 72.1907 30.605 72.2994C30.605 72.4081 30.6474 72.5125 30.723 72.59C30.7987 72.6675 30.9015 72.712 31.0094 72.7138H46.4249C46.5338 72.7153 46.6388 72.6732 46.7169 72.5968C46.7951 72.5204 46.84 72.4159 46.8418 72.3062C46.8436 72.1965 46.8021 72.0905 46.7265 72.0116C46.6509 71.9326 46.5472 71.8871 46.4384 71.8851C46.4339 71.885 46.4294 71.885 46.4249 71.8851H31.0094Z" fill="#3F3D56"/>
<path d="M31.0094 74.1714C30.9015 74.1732 30.7987 74.2177 30.723 74.2952C30.6474 74.3727 30.605 74.4771 30.605 74.5858C30.605 74.6945 30.6474 74.7989 30.723 74.8764C30.7987 74.9539 30.9015 74.9984 31.0094 75.0002H46.4249C46.5338 75.0017 46.6388 74.9596 46.7169 74.8832C46.7951 74.8068 46.84 74.7023 46.8418 74.5926C46.8436 74.4829 46.8021 74.3769 46.7265 74.298C46.6509 74.219 46.5472 74.1735 46.4384 74.1714C46.4339 74.1714 46.4294 74.1714 46.4249 74.1714H31.0094Z" fill="#3F3D56"/>
<path d="M84.5501 85.3316C87.2486 85.3316 89.4361 83.1273 89.4361 80.4082C89.4361 77.689 87.2486 75.4847 84.5501 75.4847C81.8516 75.4847 79.6641 77.689 79.6641 80.4082C79.6641 83.1273 81.8516 85.3316 84.5501 85.3316Z" fill="#2F2E41"/>
<path d="M86.7773 84.2722H85.293V86.952H86.7773V84.2722Z" fill="#2F2E41"/>
<path d="M83.8086 84.2722H82.3242V86.952H83.8086V84.2722Z" fill="#2F2E41"/>
<path d="M85.5397 87.4506C86.2229 87.4506 86.7767 87.2413 86.7767 86.9832C86.7767 86.725 86.2229 86.5157 85.5397 86.5157C84.8565 86.5157 84.3027 86.725 84.3027 86.9832C84.3027 87.2413 84.8565 87.4506 85.5397 87.4506Z" fill="#2F2E41"/>
<path d="M82.5709 87.3882C83.2541 87.3882 83.8079 87.1789 83.8079 86.9208C83.8079 86.6626 83.2541 86.4534 82.5709 86.4534C81.8878 86.4534 81.334 86.6626 81.334 86.9208C81.334 87.1789 81.8878 87.3882 82.5709 87.3882Z" fill="#2F2E41"/>
<path d="M84.4267 80.8445C85.349 80.8445 86.0967 80.0912 86.0967 79.1618C86.0967 78.2325 85.349 77.4791 84.4267 77.4791C83.5045 77.4791 82.7568 78.2325 82.7568 79.1618C82.7568 80.0912 83.5045 80.8445 84.4267 80.8445Z" fill="white"/>
<path d="M84.4268 79.7226C84.7342 79.7226 84.9834 79.4715 84.9834 79.1617C84.9834 78.852 84.7342 78.6008 84.4268 78.6008C84.1193 78.6008 83.8701 78.852 83.8701 79.1617C83.8701 79.4715 84.1193 79.7226 84.4268 79.7226Z" fill="#3F3D56"/>
<path d="M89.29 75.8296C89.6846 74.0492 88.4234 72.2502 86.4732 71.8114C84.523 71.3726 82.6222 72.4601 82.2277 74.2405C81.8332 76.0209 83.1256 76.6776 85.0758 77.1163C87.0261 77.5551 88.8955 77.6099 89.29 75.8296Z" fill="#E6E6E6"/>
<path d="M32.5146 47.7162C32.5159 48.4711 32.3438 49.216 32.012 49.8929C31.9746 49.9706 31.9349 50.046 31.8929 50.1215H23.3648C23.3229 50.046 23.2831 49.9706 23.2457 49.8929C22.9201 49.2276 22.7479 48.4969 22.7419 47.7552C22.7358 47.0135 22.8962 46.28 23.2109 45.6095C23.5257 44.939 23.9867 44.3488 24.5595 43.883C25.1324 43.4172 25.8022 43.0879 26.5191 42.9195C27.236 42.7512 27.9813 42.7482 28.6995 42.9108C29.4177 43.0734 30.0901 43.3975 30.6666 43.8587C31.2431 44.3199 31.7087 44.9064 32.0287 45.5743C32.3487 46.2423 32.5148 46.9745 32.5146 47.7162Z" fill="#2F2E41"/>
<path d="M27.7529 48.1519C28.6752 48.1519 29.4228 47.3985 29.4228 46.4692C29.4228 45.5399 28.6752 44.7865 27.7529 44.7865C26.8306 44.7865 26.083 45.5399 26.083 46.4692C26.083 47.3985 26.8306 48.1519 27.7529 48.1519Z" fill="white"/>
<path d="M27.7529 47.0301C28.0603 47.0301 28.3096 46.779 28.3096 46.4692C28.3096 46.1594 28.0603 45.9083 27.7529 45.9083C27.4455 45.9083 27.1963 46.1594 27.1963 46.4692C27.1963 46.779 27.4455 47.0301 27.7529 47.0301Z" fill="#3F3D56"/>
<path d="M22.8896 43.1371C22.4951 41.3567 23.7562 39.5577 25.7064 39.1189C27.6567 38.68 29.5574 39.7676 29.952 41.548C30.3465 43.3284 29.054 43.985 27.1038 44.4238C25.1536 44.8626 23.2841 44.9174 22.8896 43.1371Z" fill="#FF8E3D"/>
<path d="M34.6351 34.8026H20.5673C20.4168 34.8027 20.2726 34.8629 20.1662 34.9701C20.0598 35.0773 20.0001 35.2226 20 35.3742V49.5498C20.0001 49.7014 20.0598 49.8468 20.1662 49.954C20.2726 50.0612 20.4168 50.1214 20.5673 50.1214H34.6351C34.7856 50.1214 34.9298 50.0612 35.0362 49.954C35.1426 49.8468 35.2023 49.7014 35.2024 49.5498V35.3742C35.2023 35.2226 35.1426 35.0773 35.0362 34.9701C34.9298 34.8629 34.7856 34.8027 34.6351 34.8026ZM34.9755 49.5498C34.9752 49.6407 34.9393 49.7278 34.8755 49.7921C34.8117 49.8563 34.7253 49.8925 34.6351 49.8928H20.5673C20.4771 49.8925 20.3907 49.8563 20.3269 49.7921C20.2631 49.7278 20.2272 49.6407 20.2269 49.5498V35.3742C20.2272 35.2833 20.2631 35.1963 20.3269 35.132C20.3907 35.0677 20.4771 35.0315 20.5673 35.0313H34.6351C34.7253 35.0315 34.8118 35.0677 34.8755 35.132C34.9393 35.1963 34.9752 35.2833 34.9755 35.3742V49.5498Z" fill="#3F3D56"/>
<path d="M50.0765 76.9662C50.5582 75.6962 50.628 74.5432 50.2323 74.3908C49.8367 74.2384 49.1254 75.1444 48.6437 76.4144C48.162 77.6844 48.0922 78.8374 48.4879 78.9898C48.8835 79.1422 49.5948 78.2362 50.0765 76.9662Z" fill="#2F2E41"/>
<path d="M49.6668 81.1969C50.0991 78.5129 48.2902 75.984 45.6265 75.5484C42.9629 75.1128 40.4532 76.9356 40.0209 79.6196C39.5887 82.3037 41.3976 84.8326 44.0612 85.2681C46.7249 85.7037 49.2346 83.881 49.6668 81.1969Z" fill="#2F2E41"/>
<path d="M44.102 84.2722H42.6177V86.952H44.102V84.2722Z" fill="#2F2E41"/>
<path d="M47.0703 84.2722H45.5859V86.952H47.0703V84.2722Z" fill="#2F2E41"/>
<path d="M43.8546 87.4506C44.5378 87.4506 45.0916 87.2413 45.0916 86.9832C45.0916 86.725 44.5378 86.5157 43.8546 86.5157C43.1715 86.5157 42.6177 86.725 42.6177 86.9832C42.6177 87.2413 43.1715 87.4506 43.8546 87.4506Z" fill="#2F2E41"/>
<path d="M46.8229 87.3882C47.5061 87.3882 48.0599 87.1789 48.0599 86.9208C48.0599 86.6626 47.5061 86.4534 46.8229 86.4534C46.1397 86.4534 45.5859 86.6626 45.5859 86.9208C45.5859 87.1789 46.1397 87.3882 46.8229 87.3882Z" fill="#2F2E41"/>
<path d="M40.1045 75.8296C39.7099 74.0492 40.9711 72.2502 42.9213 71.8114C44.8715 71.3726 46.7723 72.4601 47.1668 74.2405C47.5613 76.0209 46.2689 76.6776 44.3186 77.1164C42.3684 77.5552 40.499 77.61 40.1045 75.8296Z" fill="#FF8E3D"/>
<path d="M41.548 79.1787C41.7295 78.793 40.8884 78.0081 39.6693 77.4255C38.4502 76.8429 37.3149 76.6832 37.1333 77.0688C36.9518 77.4545 37.7929 78.2394 39.012 78.822C40.2311 79.4046 41.3665 79.5643 41.548 79.1787Z" fill="#2F2E41"/>
<path d="M86.0246 70.2022C88.657 70.2022 90.791 68.0519 90.791 65.3994C90.791 62.7469 88.657 60.5966 86.0246 60.5966C83.3923 60.5966 81.2583 62.7469 81.2583 65.3994C81.2583 68.0519 83.3923 70.2022 86.0246 70.2022Z" fill="#2F2E41"/>
<path d="M88.2141 69.1585L86.7661 69.1653L86.7782 71.7794L88.2262 71.7727L88.2141 69.1585Z" fill="#2F2E41"/>
<path d="M85.3181 69.1721L83.8701 69.1788L83.8822 71.793L85.3302 71.7862L85.3181 69.1721Z" fill="#2F2E41"/>
<path d="M84.534 72.4585C85.1096 72.12 85.474 71.6693 85.3481 71.4518C85.2221 71.2343 84.6534 71.3324 84.0778 71.6708C83.5022 72.0093 83.1378 72.46 83.2637 72.6775C83.3897 72.895 83.9584 72.7969 84.534 72.4585Z" fill="#2F2E41"/>
<path d="M87.3694 72.4452C87.945 72.1067 88.3095 71.656 88.1835 71.4385C88.0576 71.221 87.4889 71.3191 86.9133 71.6575C86.3377 71.996 85.9732 72.4467 86.0992 72.6642C86.2251 72.8817 86.7938 72.7836 87.3694 72.4452Z" fill="#2F2E41"/>
<path d="M85.8985 65.8256C86.7982 65.8256 87.5275 65.0906 87.5275 64.1841C87.5275 63.2775 86.7982 62.5426 85.8985 62.5426C84.9989 62.5426 84.2695 63.2775 84.2695 64.1841C84.2695 65.0906 84.9989 65.8256 85.8985 65.8256Z" fill="white"/>
<path d="M85.3404 64.0347C85.6403 64.0347 85.8834 63.7898 85.8834 63.4876C85.8834 63.1854 85.6403 62.9404 85.3404 62.9404C85.0405 62.9404 84.7974 63.1854 84.7974 63.4876C84.7974 63.7898 85.0405 64.0347 85.3404 64.0347Z" fill="#3F3D56"/>
<path d="M90.6275 60.9112C91.0043 59.1727 89.766 57.4235 87.8616 57.0044C85.9572 56.5853 84.1079 57.6549 83.7311 59.3934C83.3542 61.132 84.618 61.7666 86.5224 62.1857C88.4268 62.6049 90.2507 62.6498 90.6275 60.9112Z" fill="#FF8E3D"/>
<path d="M83.2423 63.9024C83.4031 63.5188 82.5506 62.7895 81.3382 62.2733C80.1258 61.7571 79.0125 61.6496 78.8517 62.0331C78.6909 62.4166 79.5434 63.146 80.7558 63.6622C81.9682 64.1784 83.0814 64.2859 83.2423 63.9024Z" fill="#2F2E41"/>
<path d="M92.9805 67.883C93.1414 67.4994 92.2889 66.7701 91.0765 66.2539C89.864 65.7377 88.7508 65.6302 88.59 66.0137C88.4292 66.3972 89.2817 67.1266 90.4941 67.6428C91.7065 68.159 92.8197 68.2665 92.9805 67.883Z" fill="#2F2E41"/>
<path d="M86.9879 67.4923C86.9888 67.6361 86.9616 67.7786 86.9078 67.9118C86.8541 68.045 86.7747 68.1662 86.6745 68.2685C86.5742 68.3708 86.4549 68.4521 86.3234 68.5079C86.1919 68.5637 86.0507 68.5929 85.908 68.5937C85.7653 68.5945 85.6239 68.5669 85.4918 68.5126C85.3597 68.4583 85.2394 68.3783 85.138 68.2772C85.0366 68.1761 84.956 68.0558 84.9007 67.9232C84.8454 67.7906 84.8166 67.6484 84.8159 67.5046L84.8159 67.5025C84.8131 66.8981 85.2988 66.7707 85.8985 66.7679C86.4983 66.7651 86.9851 66.8879 86.9879 67.4923Z" fill="white"/>
<path d="M82.1034 62.5439H55.4609C54.9415 62.5439 54.5206 62.2418 54.52 61.8695V56.0343C54.5206 55.662 54.9415 55.3599 55.4609 55.3599H82.1034C82.6228 55.3599 83.0437 55.662 83.0443 56.0343V61.8693C83.0438 62.2417 82.6228 62.5435 82.1034 62.5439ZM55.4609 55.6294C55.1492 55.6294 54.8967 55.8107 54.8963 56.0341V61.8691C54.8963 62.0925 55.1492 62.2736 55.4609 62.2738H82.1034C82.4151 62.2738 82.6676 62.0925 82.668 61.8691V56.0343C82.668 55.811 82.4151 55.6299 82.1034 55.6297L55.4609 55.6294Z" fill="#3F3D56"/>
</g>
<defs>
<clipPath id="clip0">
<rect width="73" height="62" fill="white" transform="translate(20 26)"/>
</clipPath>
</defs>
</svg>
