<svg width="114" height="114" viewBox="0 0 114 114" fill="none" xmlns="http://www.w3.org/2000/svg">
<circle cx="57" cy="57" r="57" fill="#272727"/>
<g clip-path="url(#clip0)">
<path d="M86.1151 81.6676L84.8436 81.6675L84.2388 76.7808L86.1153 76.7808L86.1151 81.6676Z" fill="#FFB8B8"/>
<path d="M86.4401 82.8957L82.3403 82.8956V82.8439C82.3404 82.4222 82.5085 82.0178 82.8078 81.7196C83.107 81.4215 83.5129 81.2539 83.9361 81.2539H83.9362L86.4402 81.254L86.4401 82.8957Z" fill="#2F2E41"/>
<path d="M91.7274 78.5529L90.9021 79.5167L86.7788 76.8032L87.9969 75.3809L91.7274 78.5529Z" fill="#FFB8B8"/>
<path d="M92.8753 79.1041L90.2141 82.2117L90.1747 82.1781C89.8527 81.9044 89.6531 81.5144 89.6197 81.0941C89.5863 80.6737 89.7219 80.2573 89.9966 79.9365L89.9966 79.9364L91.622 78.0385L92.8753 79.1041Z" fill="#2F2E41"/>
<path d="M77.0877 57.6352L76.6919 61.2724L92.6914 61.045L85.7139 49.7165L80.0169 49.5126L77.0877 57.6352Z" fill="#2F2E41"/>
<path opacity="0.28" d="M77.0877 57.6352L76.6919 61.2724L92.6914 61.045L85.7139 49.7165L80.0169 49.5126L77.0877 57.6352Z" fill="black"/>
<path d="M80.2338 58.2597L79.6689 61.5876V64.5623L84.223 66.0435C84.223 66.0435 83.6899 77.5977 84.4007 78.3336L84.3832 80.1101L86.3699 80.2001L86.3861 78.9498L87.2284 69.6046L87.7245 62.7434L86.9202 57.5414L80.2338 58.2597Z" fill="#2F2E41"/>
<path d="M83.7617 61.1245L79.6686 64.5624C79.6686 64.5624 79.429 70.7651 80.0374 71.4925C80.5599 72.1173 87.3555 77.5063 87.3555 77.5063C87.3555 77.5063 88.5633 78.6102 89.2401 78.6278C89.917 78.6454 90.7042 77.2308 90.7042 77.2308L89.1367 76.0441C89.1367 76.0441 85.0757 72.267 83.8699 70.7651C83.3833 70.1589 83.3833 70.0983 83.3833 70.0983L83.5495 67.5775L85.2224 62.8992L83.7617 61.1245Z" fill="#2F2E41"/>
<path d="M79.4164 44.6569L77.6516 44.4944L76.0509 44.7602L72.6614 44.7613L72.3726 47.2092L75.4658 47.8989L76.2196 47.5308L79.3617 48.7237L79.4164 44.6569Z" fill="#2F2E41"/>
<path d="M81.5242 44.6493C81.5242 44.6493 85.2695 44.2996 86.1211 44.9664C86.9728 45.6332 88.7979 58.8477 88.7979 58.8477L81.5242 59.2568L80.2202 58.3628L80.5904 51.7655L81.5242 44.6493Z" fill="#CCCCCC"/>
<path d="M82.6672 44.5669L78.5359 44.6572L74.6841 61.9997L77.7258 62.6666L82.6672 44.5669Z" fill="#2F2E41"/>
<path d="M85.6044 44.4203L88.8587 45.4352L88.6739 52.5607L92.6913 61.0797L87.9685 61.5754L84.2354 52.3765L85.6044 44.4203Z" fill="#2F2E41"/>
<path d="M90.9707 61.9452C91.0848 61.8451 91.1754 61.7213 91.2363 61.5826C91.2972 61.4438 91.3268 61.2934 91.3231 61.142C91.3193 60.9906 91.2823 60.8418 91.2146 60.7062C91.1469 60.5706 91.0502 60.4514 90.9313 60.3571L91.586 58.0813L90.2951 57.3475L89.4158 60.5743C89.27 60.7839 89.2064 61.0395 89.237 61.2926C89.2677 61.5458 89.3905 61.779 89.5821 61.9479C89.7738 62.1169 90.021 62.21 90.2769 62.2094C90.5328 62.2089 90.7797 62.1149 90.9707 61.9452Z" fill="#FFB8B8"/>
<path d="M86.9727 45.6331L88.8983 45.4667C88.8983 45.4667 90.627 47.2683 91.0203 48.6632C91.4136 50.0582 91.8394 54.4226 91.8394 54.4226L91.6618 60.8074L89.4109 59.2843L89.2599 53.7926L86.9727 45.6331Z" fill="#2F2E41"/>
<path d="M86.5082 42.424C87.2313 41.1059 86.7452 39.4533 85.4224 38.7328C84.0996 38.0122 82.4411 38.4967 81.718 39.8147C80.9949 41.1328 81.481 42.7854 82.8038 43.5059C84.1266 44.2264 85.7851 43.742 86.5082 42.424Z" fill="#FFB8B8"/>
<path d="M83.809 39.9839C83.4508 39.9014 83.0791 39.9928 82.7163 40.052C82.3536 40.1113 81.9538 40.1308 81.647 39.9291C81.4204 39.7802 81.2811 39.5338 81.1503 39.2968C81.0957 39.2122 81.0593 39.1172 81.0434 39.0178C81.028 38.8425 81.1399 38.6826 81.2587 38.5525C81.8107 37.9479 82.6173 37.617 83.4307 37.5119C84.1015 37.4123 84.7869 37.4957 85.4139 37.7532C86.0314 38.0231 86.5621 38.5173 86.8049 39.144C86.9167 39.4648 86.9865 39.7986 87.0127 40.1372C87.0493 40.3863 87.054 40.6391 87.0267 40.8894C86.994 41.075 86.945 41.2573 86.8804 41.4343L86.4782 42.6443C86.4493 42.7586 86.3953 42.8651 86.3201 42.9561C86.2815 43.0007 86.2294 43.0316 86.1716 43.0442C86.1139 43.0568 86.0536 43.0505 85.9998 43.0261C86.0319 42.8947 86.0368 42.7581 86.0142 42.6247C86.0016 42.5582 85.9693 42.497 85.9215 42.449C85.8737 42.401 85.8126 42.3683 85.746 42.3552C85.5978 42.3395 85.4712 42.454 85.3306 42.5033C85.2662 42.5223 85.1987 42.5285 85.132 42.5216C85.0652 42.5146 85.0005 42.4946 84.9415 42.4627C84.8825 42.4308 84.8304 42.3876 84.7882 42.3356C84.7459 42.2837 84.7144 42.2239 84.6953 42.1598C84.6914 42.1469 84.6881 42.1338 84.6853 42.1206C84.6631 41.9823 84.7004 41.8342 84.6478 41.7043C84.5861 41.5521 84.4226 41.4724 84.2998 41.363C84.1877 41.26 84.1075 41.1272 84.0686 40.9803C84.0297 40.8333 84.0336 40.6784 84.0801 40.5337C84.1129 40.433 84.2058 40.3872 84.1872 40.2715C84.1628 40.1198 83.9383 40.0137 83.809 39.9839Z" fill="#2F2E41"/>
<path d="M53.4615 51.4812H19V30H53.4615V51.4812Z" fill="white"/>
<path d="M53.4615 51.4812H19V30H53.4615V51.4812ZM19.1574 51.3244H53.3042V30.1568H19.1574V51.3244Z" fill="#3F3D56"/>
<path d="M49.2519 81.2334H29.582V59.7522H49.2519V81.2334Z" fill="white"/>
<path d="M49.2519 81.2334H29.582V59.7522H49.2519V81.2334ZM29.7394 81.0766H49.0945V59.909H29.7394V81.0766Z" fill="#3F3D56"/>
<path d="M46.5767 79.2047H42.4854V79.37H46.5767V79.2047Z" fill="#3F3D56"/>
<path d="M46.5767 79.7004H42.4854V79.8657H46.5767V79.7004Z" fill="#3F3D56"/>
<path d="M46.5767 80.1963H42.4854V80.3616H46.5767V80.1963Z" fill="#3F3D56"/>
<path d="M39.4175 63.5939V65.3186C40.4445 65.3186 41.4485 65.6221 42.3025 66.1907C43.1564 66.7592 43.822 67.5673 44.215 68.5128C44.608 69.4583 44.7109 70.4987 44.5105 71.5024C44.3102 72.5061 43.8156 73.4281 43.0894 74.1517L44.3133 75.3713C45.2816 74.4065 45.941 73.1772 46.2082 71.8389C46.4754 70.5006 46.3382 69.1134 45.8142 67.8528C45.2902 66.5921 44.4027 65.5147 43.2641 64.7566C42.1255 63.9985 40.7869 63.5939 39.4175 63.5939Z" fill="#E6E6E6"/>
<path d="M44.3133 75.3712L43.0893 74.1516C42.2015 75.0364 41.022 75.5706 39.7692 75.6553C38.5164 75.7399 37.2752 75.3692 36.2757 74.6119L35.228 75.9855C36.561 76.995 38.2159 77.489 39.8863 77.3761C41.5567 77.2631 43.1294 76.5509 44.3133 75.3712Z" fill="#8F3C00"/>
<path d="M34.2246 70.4929C34.2246 69.8134 34.3589 69.1406 34.6199 68.5128C34.8808 67.8851 35.2633 67.3146 35.7455 66.8342C36.2277 66.3537 36.8002 65.9725 37.4302 65.7125C38.0602 65.4525 38.7355 65.3186 39.4174 65.3186V63.5939C37.968 63.5939 36.5551 64.0471 35.378 64.8897C34.2008 65.7323 33.3187 66.9217 32.856 68.2904C32.3932 69.6591 32.3733 71.1379 32.7988 72.5185C33.2244 73.8991 34.074 75.1118 35.228 75.9857L36.2757 74.6121C35.6378 74.1299 35.1206 73.5071 34.7648 72.7925C34.4089 72.0778 34.224 71.2907 34.2246 70.4929Z" fill="#FF8E3D"/>
<path d="M78.3632 67.9057H58.6934V46.4244H78.3632V67.9057Z" fill="white"/>
<path d="M78.3632 67.9057H58.6934V46.4244H78.3632V67.9057ZM58.8507 67.7489H78.2058V46.5812H58.8507V67.7489Z" fill="#3F3D56"/>
<path d="M65.0665 59.5563H61.5259V65.201H65.0665V59.5563Z" fill="#8F3C00"/>
<path d="M70.1807 55.7147H66.6401V65.201H70.1807V55.7147Z" fill="#E6E6E6"/>
<path d="M75.295 51.2461H71.7544V65.201H75.295V51.2461Z" fill="#FF8E3D"/>
<path d="M76.4752 65.3579H60.582V48.9725H60.7393V65.2011H76.4752V65.3579Z" fill="#3F3D56"/>
<path d="M72.6437 46.9964C73.2422 46.9964 73.7274 46.5129 73.7274 45.9166C73.7274 45.3202 73.2422 44.8368 72.6437 44.8368C72.0452 44.8368 71.5601 45.3202 71.5601 45.9166C71.5601 46.5129 72.0452 46.9964 72.6437 46.9964Z" fill="#FFB8B8"/>
<path d="M94.9095 83H78.0224C77.9985 83 77.9755 82.9906 77.9586 82.9737C77.9416 82.9568 77.9321 82.9339 77.9321 82.9101C77.9321 82.8862 77.9416 82.8633 77.9586 82.8464C77.9755 82.8295 77.9985 82.8201 78.0224 82.8201H94.9095C94.9335 82.8201 94.9564 82.8295 94.9734 82.8464C94.9903 82.8633 94.9998 82.8862 94.9998 82.9101C94.9998 82.9339 94.9903 82.9568 94.9734 82.9737C94.9564 82.9906 94.9335 83 94.9095 83Z" fill="#CCCCCC"/>
<path d="M48.6757 46.9886H23.7859C23.7652 46.9886 23.7454 46.9804 23.7308 46.9659C23.7162 46.9513 23.708 46.9316 23.708 46.911V35.0239C23.708 35.0033 23.7162 34.9836 23.7308 34.969C23.7454 34.9545 23.7652 34.9463 23.7859 34.9463C23.8066 34.9463 23.8264 34.9545 23.841 34.969C23.8556 34.9836 23.8638 35.0033 23.8638 35.0239V46.8334H48.6757C48.6859 46.8334 48.6961 46.8353 48.7056 46.8392C48.715 46.8431 48.7237 46.8488 48.7309 46.856C48.7382 46.8632 48.7439 46.8718 48.7479 46.8812C48.7518 46.8907 48.7538 46.9008 48.7538 46.911C48.7538 46.9212 48.7518 46.9313 48.7479 46.9408C48.7439 46.9502 48.7382 46.9588 48.7309 46.966C48.7237 46.9732 48.715 46.9789 48.7056 46.9828C48.6961 46.9867 48.6859 46.9887 48.6757 46.9886Z" fill="#3F3D56"/>
<path d="M29.1034 46.1349H26.8396C26.7783 46.1348 26.7196 46.1105 26.6762 46.0673C26.6329 46.0242 26.6085 45.9656 26.6084 45.9045V42.795C26.6085 42.7339 26.6329 42.6753 26.6762 42.6321C26.7196 42.5889 26.7783 42.5646 26.8396 42.5646H29.1034C29.1647 42.5646 29.2235 42.5889 29.2669 42.6321C29.3102 42.6753 29.3346 42.7339 29.3347 42.795V45.9045C29.3346 45.9656 29.3102 46.0242 29.2669 46.0673C29.2235 46.1105 29.1647 46.1348 29.1034 46.1349Z" fill="#FF8E3D"/>
<path d="M33.2319 46.1348H30.968C30.9067 46.1348 30.848 46.1105 30.8046 46.0673C30.7613 46.0241 30.7369 45.9655 30.7368 45.9044V39.8455C30.7369 39.7844 30.7613 39.7259 30.8046 39.6827C30.848 39.6395 30.9067 39.6152 30.968 39.6151H33.2319C33.2932 39.6152 33.3519 39.6395 33.3953 39.6827C33.4386 39.7259 33.463 39.7844 33.4631 39.8455V45.9044C33.463 45.9655 33.4386 46.0241 33.3953 46.0673C33.3519 46.1105 33.2932 46.1348 33.2319 46.1348Z" fill="#FF8E3D"/>
<path d="M37.3608 46.1349H35.097C35.0356 46.1348 34.9769 46.1105 34.9335 46.0673C34.8902 46.0242 34.8658 45.9656 34.8657 45.9045V42.795C34.8658 42.7339 34.8902 42.6753 34.9335 42.6321C34.9769 42.5889 35.0356 42.5646 35.097 42.5646H37.3608C37.4221 42.5646 37.4808 42.5889 37.5242 42.6321C37.5675 42.6753 37.5919 42.7339 37.592 42.795V45.9045C37.5919 45.9656 37.5675 46.0242 37.5242 46.0673C37.4808 46.1105 37.4221 46.1348 37.3608 46.1349Z" fill="#FF8E3D"/>
<path d="M41.4887 46.1349H39.2249C39.165 46.1362 39.107 46.1138 39.0637 46.0726C39.0203 46.0313 38.9951 45.9747 38.9937 45.915V38.6709C38.9951 38.6112 39.0203 38.5546 39.0637 38.5134C39.107 38.4721 39.165 38.4497 39.2249 38.451H41.4887C41.5486 38.4497 41.6066 38.4721 41.6499 38.5134C41.6932 38.5546 41.7184 38.6112 41.7199 38.6709V45.915C41.7184 45.9747 41.6932 46.0313 41.6499 46.0726C41.6066 46.1138 41.5486 46.1362 41.4887 46.1349Z" fill="#FF8E3D"/>
<path d="M45.6176 46.1349H43.3538C43.2925 46.1349 43.2337 46.1106 43.1904 46.0674C43.147 46.0242 43.1226 45.9656 43.1226 45.9045V36.5857C43.1226 36.5246 43.147 36.4661 43.1904 36.4229C43.2337 36.3797 43.2925 36.3554 43.3538 36.3553H45.6176C45.6789 36.3554 45.7377 36.3797 45.781 36.4229C45.8244 36.4661 45.8488 36.5246 45.8488 36.5857V45.9045C45.8488 45.9656 45.8244 46.0242 45.781 46.0674C45.7377 46.1106 45.6789 46.1349 45.6176 46.1349Z" fill="#FF8E3D"/>
<path d="M27.9718 41.6332C28.2299 41.6332 28.4391 41.4247 28.4391 41.1675C28.4391 40.9103 28.2299 40.7018 27.9718 40.7018C27.7136 40.7018 27.5044 40.9103 27.5044 41.1675C27.5044 41.4247 27.7136 41.6332 27.9718 41.6332Z" fill="#3F3D56"/>
<path d="M32.1002 38.6062C32.3583 38.6062 32.5675 38.3977 32.5675 38.1405C32.5675 37.8833 32.3583 37.6748 32.1002 37.6748C31.8421 37.6748 31.6328 37.8833 31.6328 38.1405C31.6328 38.3977 31.8421 38.6062 32.1002 38.6062Z" fill="#3F3D56"/>
<path d="M36.2286 41.6332C36.4867 41.6332 36.696 41.4247 36.696 41.1675C36.696 40.9103 36.4867 40.7018 36.2286 40.7018C35.9705 40.7018 35.7612 40.9103 35.7612 41.1675C35.7612 41.4247 35.9705 41.6332 36.2286 41.6332Z" fill="#3F3D56"/>
<path d="M40.3565 37.1315C40.6147 37.1315 40.8239 36.923 40.8239 36.6658C40.8239 36.4086 40.6147 36.2001 40.3565 36.2001C40.0984 36.2001 39.8892 36.4086 39.8892 36.6658C39.8892 36.923 40.0984 37.1315 40.3565 37.1315Z" fill="#3F3D56"/>
<path d="M44.4854 35.4239C44.7435 35.4239 44.9528 35.2154 44.9528 34.9582C44.9528 34.7011 44.7435 34.4926 44.4854 34.4926C44.2273 34.4926 44.0181 34.7011 44.0181 34.9582C44.0181 35.2154 44.2273 35.4239 44.4854 35.4239Z" fill="#3F3D56"/>
<path d="M36.2385 41.2718L32.1004 38.1833L28.0187 41.2296L27.9253 41.1053L32.1004 37.9893L36.2188 41.0631L40.3116 36.6004L40.328 36.5938L44.4563 34.9363L44.5145 35.0803L40.4026 36.7312L36.2385 41.2718Z" fill="#3F3D56"/>
</g>
<defs>
<clipPath id="clip0">
<rect width="76" height="53" fill="white" transform="translate(19 30)"/>
</clipPath>
</defs>
</svg>
