<svg width="96" height="96" viewBox="0 0 96 96" fill="none" xmlns="http://www.w3.org/2000/svg">
<g clip-path="url(#clip0_107_121)">
<path d="M47.5117 43.9389C45.1637 43.2629 42.8157 42.9199 40.5317 42.9199C37.0047 42.9199 34.0617 43.7259 31.7797 44.7129C33.9797 36.6589 39.2647 22.7619 49.7927 21.1969C50.7677 21.0519 51.5667 20.3469 51.8327 19.3979L54.1337 11.1679C54.3277 10.4719 54.2127 9.72691 53.8157 9.12291C53.4187 8.51891 52.7807 8.11591 52.0657 8.01791C51.2887 7.91191 50.4967 7.85791 49.7117 7.85791C37.0747 7.85791 24.5597 21.0479 19.2787 39.9339C16.1787 51.0139 15.2697 67.6719 22.9057 78.1569C27.1787 84.0239 33.4127 87.1569 41.4347 87.4699C41.4677 87.4709 41.4997 87.4719 41.5327 87.4719C51.4307 87.4719 60.2077 80.8059 62.8777 71.2629C64.4727 65.5579 63.7517 59.5749 60.8457 54.4119C57.9707 49.3069 53.2357 45.5859 47.5117 43.9389Z" fill="#E0E7FB"/>
<path d="M92.4708 54.4129C89.5958 49.3069 84.8608 45.5859 79.1368 43.9389C76.7888 43.2629 74.4408 42.9199 72.1578 42.9199C68.6308 42.9199 65.6868 43.7259 63.4048 44.7129C65.6048 36.6589 70.8898 22.7619 81.4188 21.1969C82.3938 21.0519 83.1918 20.3469 83.4588 19.3979L85.7598 11.1679C85.9538 10.4719 85.8388 9.72691 85.4418 9.12291C85.0458 8.51891 84.4078 8.11591 83.6918 8.01791C82.9158 7.91191 82.1238 7.85791 81.3378 7.85791C68.7008 7.85791 56.1858 21.0479 50.9038 39.9339C47.8048 51.0139 46.8958 67.6719 54.5328 78.1589C58.8048 84.0249 65.0398 87.1589 73.0608 87.4709C73.0938 87.4719 73.1258 87.4729 73.1598 87.4729C83.0568 87.4729 91.8348 80.8069 94.5048 71.2639C96.0978 65.5589 95.3758 59.5749 92.4708 54.4129Z" fill="white"/>
</g>
<defs>
<clipPath id="clip0_107_121">
<rect width="95.333" height="95.332" fill="white"/>
</clipPath>
</defs>
</svg>
