<svg width="174" height="27" viewBox="0 0 174 27" fill="none" xmlns="http://www.w3.org/2000/svg">
<g clip-path="url(#clip0_107_109)">
<path d="M49.5054 0.935253L46.1044 7.89053L38.495 9.00947C37.1304 9.2091 36.5835 10.9059 37.5731 11.8777L43.0783 17.2886L41.7762 24.932C41.5419 26.3136 42.9846 27.3485 44.1929 26.7024L51.0002 23.0934L57.8075 26.7024C59.0158 27.3433 60.4585 26.3136 60.2241 24.932L58.9221 17.2886L64.4273 11.8777C65.4169 10.9059 64.87 9.2091 63.5054 9.00947L55.896 7.89053L52.495 0.935253C51.8856 -0.30451 50.12 -0.320269 49.5054 0.935253Z" fill="#FF545C"/>
</g>
<g clip-path="url(#clip1_107_109)">
<path d="M85.5054 0.935253L82.1044 7.89053L74.495 9.00947C73.1304 9.2091 72.5835 10.9059 73.5731 11.8777L79.0783 17.2886L77.7762 24.932C77.5419 26.3136 78.9846 27.3485 80.1929 26.7024L87.0002 23.0934L93.8075 26.7024C95.0158 27.3433 96.4585 26.3136 96.2241 24.932L94.9221 17.2886L100.427 11.8777C101.417 10.9059 100.87 9.2091 99.5054 9.00947L91.896 7.89053L88.495 0.935253C87.8856 -0.30451 86.12 -0.320269 85.5054 0.935253Z" fill="#FF545C"/>
</g>
<g clip-path="url(#clip2_107_109)">
<path d="M121.505 0.935253L118.104 7.89053L110.495 9.00947C109.13 9.2091 108.584 10.9059 109.573 11.8777L115.078 17.2886L113.776 24.932C113.542 26.3136 114.985 27.3485 116.193 26.7024L123 23.0934L129.807 26.7024C131.016 27.3433 132.459 26.3136 132.224 24.932L130.922 17.2886L136.427 11.8777C137.417 10.9059 136.87 9.2091 135.505 9.00947L127.896 7.89053L124.495 0.935253C123.886 -0.30451 122.12 -0.320269 121.505 0.935253Z" fill="#FF545C"/>
</g>
<g clip-path="url(#clip3_107_109)">
<path d="M13.5054 0.935253L10.1044 7.89053L2.49498 9.00947C1.1304 9.2091 0.583521 10.9059 1.5731 11.8777L7.07831 17.2886L5.77623 24.932C5.54185 26.3136 6.98456 27.3485 8.1929 26.7024L15.0002 23.0934L21.8075 26.7024C23.0158 27.3433 24.4585 26.3136 24.2241 24.932L22.9221 17.2886L28.4273 11.8777C29.4169 10.9059 28.87 9.2091 27.5054 9.00947L19.896 7.89053L16.495 0.935253C15.8856 -0.30451 14.12 -0.32027 13.5054 0.935253Z" fill="#FF545C"/>
</g>
<g clip-path="url(#clip4_107_109)">
<path d="M157.505 0.935253L154.104 7.89053L146.495 9.00947C145.13 9.2091 144.584 10.9059 145.573 11.8777L151.078 17.2886L149.776 24.932C149.542 26.3136 150.985 27.3485 152.193 26.7024L159 23.0934L165.807 26.7024C167.016 27.3433 168.459 26.3136 168.224 24.932L166.922 17.2886L172.427 11.8777C173.417 10.9059 172.87 9.2091 171.505 9.00947L163.896 7.89053L160.495 0.935253C159.886 -0.30451 158.12 -0.32027 157.505 0.935253Z" fill="#FF545C"/>
</g>
<defs>
<clipPath id="clip0_107_109">
<rect width="30" height="26.8966" fill="white" transform="translate(36)"/>
</clipPath>
<clipPath id="clip1_107_109">
<rect width="30" height="26.8966" fill="white" transform="translate(72)"/>
</clipPath>
<clipPath id="clip2_107_109">
<rect width="30" height="26.8966" fill="white" transform="translate(108)"/>
</clipPath>
<clipPath id="clip3_107_109">
<rect width="30" height="26.8966" fill="white"/>
</clipPath>
<clipPath id="clip4_107_109">
<rect width="30" height="26.8966" fill="white" transform="translate(144)"/>
</clipPath>
</defs>
</svg>
